<?xml version="1.0" standalone="no"?>
<!DOCTYPE svg PUBLIC "-//W3C//DTD SVG 20010904//EN"
 "http://www.w3.org/TR/2001/REC-SVG-20010904/DTD/svg10.dtd">
<svg version="1.0" xmlns="http://www.w3.org/2000/svg"
 width="2577.000000pt" height="1774.000000pt" viewBox="0 0 2577.000000 1774.000000"
 preserveAspectRatio="xMidYMid meet">

<g transform="translate(0.000000,1774.000000) scale(0.100000,-0.100000)"
fill="#000000" stroke="none">
<path d="M14945 17234 c-54 -9 -159 -46 -239 -85 -229 -114 -371 -279 -442
-516 -24 -78 -27 -112 -34 -303 -6 -188 -11 -227 -33 -307 -30 -106 -60 -168
-127 -268 -104 -153 -198 -231 -346 -284 -388 -141 -932 -170 -1404 -75 -139
28 -315 83 -369 116 -53 32 -166 144 -221 218 -126 172 -173 335 -191 665 -15
283 -43 367 -179 530 -117 142 -227 217 -395 271 -107 35 -113 36 -230 31
-140 -6 -205 -22 -335 -83 -209 -99 -330 -233 -400 -443 -34 -102 -54 -259
-45 -345 35 -326 272 -605 584 -687 60 -16 126 -22 321 -28 l245 -8 143 -47
c133 -44 150 -53 243 -123 128 -96 185 -153 249 -250 68 -103 113 -198 146
-308 24 -81 27 -103 24 -210 -2 -66 -4 -208 -4 -315 0 -183 2 -200 28 -284 56
-184 160 -355 282 -464 201 -180 403 -262 647 -262 130 0 270 23 382 64 169
61 338 197 457 367 79 115 68 93 117 241 62 190 69 254 46 441 -12 104 -16
184 -12 248 20 328 236 644 546 798 157 79 238 95 531 111 218 11 324 30 422
73 221 98 382 289 440 525 17 66 22 118 22 217 1 116 -2 139 -28 218 -47 145
-131 267 -260 379 -44 38 -91 71 -105 75 -14 3 -38 16 -52 28 -51 42 -328 93
-424 79z"/>
<path d="M8604 15206 c-94 -18 -135 -32 -219 -74 -157 -78 -243 -157 -326
-299 -114 -195 -145 -389 -94 -586 46 -180 84 -245 221 -382 73 -73 122 -109
211 -154 100 -50 162 -62 359 -71 334 -15 503 -64 679 -195 85 -63 182 -164
217 -225 64 -111 124 -341 159 -610 18 -143 21 -195 15 -390 -6 -244 -21 -376
-61 -556 -31 -137 -66 -239 -107 -313 -88 -155 -317 -323 -520 -382 -61 -17
-114 -22 -313 -28 -239 -8 -240 -8 -320 -40 -267 -107 -449 -294 -536 -552
-29 -85 -32 -105 -32 -209 2 -334 197 -617 513 -743 125 -49 298 -69 400 -46
107 24 240 71 300 106 93 55 236 200 281 288 80 154 100 248 109 525 7 187 12
251 29 313 60 229 187 402 414 565 48 35 104 68 125 74 20 5 44 16 53 24 30
27 161 39 784 70 142 7 204 23 332 87 175 89 339 260 442 465 73 145 107 390
77 557 -15 85 -64 232 -106 321 -11 22 -20 46 -20 53 0 20 -198 218 -275 275
-99 74 -168 111 -276 147 -92 31 -99 32 -311 37 -178 3 -231 1 -292 -12 -82
-19 -70 -20 -291 45 -189 57 -378 189 -483 339 -25 36 -56 78 -69 93 -13 16
-23 37 -23 46 0 10 -8 29 -18 42 -10 13 -34 71 -52 129 -33 102 -34 112 -41
325 -12 389 -60 527 -250 716 -81 81 -111 103 -190 142 -162 80 -346 111 -495
83z"/>
<path d="M16925 15203 c-76 -11 -196 -48 -255 -79 -185 -97 -335 -282 -395
-489 -24 -81 -28 -114 -35 -335 -10 -280 -31 -390 -96 -509 -112 -205 -327
-404 -511 -471 -159 -57 -197 -62 -523 -59 l-295 3 -113 -32 c-172 -49 -323
-132 -423 -232 -66 -66 -165 -202 -206 -283 -19 -38 -49 -122 -66 -186 -29
-105 -32 -130 -32 -256 1 -252 62 -424 222 -622 108 -135 281 -251 465 -314
144 -49 221 -55 480 -35 l206 16 111 -25 c304 -67 587 -302 706 -584 58 -138
66 -185 75 -456 9 -268 14 -295 72 -430 99 -226 301 -391 563 -460 87 -22 269
-20 373 5 258 62 484 287 563 562 12 44 23 117 26 184 5 100 3 121 -21 203
-29 103 -51 149 -109 236 -96 141 -199 233 -335 297 -103 49 -190 68 -312 68
-112 0 -343 32 -450 61 -135 36 -280 129 -407 259 -114 116 -182 309 -229 650
-13 93 -18 196 -18 400 -1 290 5 352 60 634 53 275 207 472 479 610 120 62
193 76 440 86 251 10 332 28 475 106 193 106 343 293 401 499 34 117 32 286
-3 412 -14 51 -34 105 -44 120 -10 15 -26 44 -35 64 -25 53 -129 170 -201 224
-84 63 -204 122 -296 146 -71 18 -220 24 -307 12z"/>
<path d="M10670 15049 c-158 -14 -238 -55 -370 -188 -101 -103 -136 -160 -164
-266 -40 -159 -30 -303 34 -432 89 -185 217 -296 409 -354 65 -19 88 -21 185
-16 220 12 294 43 432 181 77 76 137 180 169 291 24 80 17 295 -11 375 -47
133 -182 285 -309 345 -71 34 -225 76 -267 74 -13 -1 -61 -5 -108 -10z"/>
<path d="M14955 15049 c-141 -19 -272 -73 -359 -150 -58 -52 -144 -187 -174
-274 -32 -94 -40 -244 -18 -338 44 -186 174 -347 347 -430 150 -71 222 -81
394 -52 135 23 219 68 325 174 138 138 190 259 190 446 0 174 -46 295 -158
416 -160 173 -329 237 -547 208z"/>
<path d="M12850 12915 c-8 -2 -49 -9 -90 -15 -179 -28 -353 -157 -433 -323
-80 -165 -93 -292 -47 -472 69 -271 317 -455 614 -455 115 0 184 18 300 78
162 83 262 212 306 393 80 333 -100 657 -426 769 -52 18 -189 34 -224 25z"/>
<path d="M12690 11179 c-225 -55 -436 -180 -564 -335 -68 -83 -152 -233 -182
-329 -41 -131 -46 -190 -39 -490 6 -264 5 -285 -14 -360 -28 -105 -96 -250
-141 -300 -20 -22 -60 -70 -90 -107 -113 -143 -281 -251 -465 -299 -64 -16
-129 -22 -325 -29 -275 -10 -346 -23 -473 -86 -339 -171 -510 -538 -421 -904
21 -86 90 -230 147 -307 80 -108 231 -218 360 -262 93 -32 233 -45 340 -32
174 23 309 84 444 203 82 71 126 127 177 219 68 126 77 169 91 444 l13 251 37
99 c53 143 84 199 163 300 90 116 132 155 213 199 118 65 222 92 514 138 129
20 187 23 420 23 234 0 289 -3 414 -23 268 -43 461 -102 553 -169 72 -52 179
-174 227 -258 98 -170 126 -286 140 -583 9 -182 13 -211 39 -285 59 -170 156
-303 303 -412 88 -66 111 -77 223 -114 104 -34 140 -41 205 -41 130 0 323 47
420 103 114 66 253 212 311 327 75 148 107 374 76 530 -48 237 -222 454 -449
560 -122 58 -199 71 -467 79 -223 8 -253 11 -333 35 -48 14 -114 39 -146 56
-132 66 -310 227 -401 360 -74 110 -101 181 -159 433 -6 25 -4 72 6 140 20
144 20 365 0 447 -57 228 -135 369 -280 507 -208 197 -401 280 -672 289 -107
3 -145 0 -215 -17z"/>
<path d="M10594 10760 c-235 -61 -411 -241 -459 -469 -19 -92 -19 -240 0 -314
23 -88 97 -226 147 -273 86 -81 138 -115 230 -151 85 -33 104 -36 218 -41 116
-4 131 -2 205 22 225 75 370 227 425 442 40 155 19 342 -52 477 -43 81 -136
179 -206 218 -32 18 -63 37 -70 42 -7 6 -52 23 -99 39 -105 34 -228 37 -339 8z"/>
<path d="M14945 10774 c-86 -20 -118 -30 -171 -54 -120 -54 -235 -149 -291
-241 -12 -19 -38 -83 -58 -141 -30 -89 -35 -119 -35 -194 0 -154 41 -272 136
-395 85 -111 204 -190 339 -224 75 -19 231 -19 313 0 181 43 336 171 422 350
50 105 65 170 63 280 -4 331 -276 611 -603 621 -52 2 -104 1 -115 -2z"/>
<path d="M4295 5893 c-165 -19 -262 -45 -383 -103 -224 -107 -362 -227 -498
-433 -90 -136 -140 -250 -199 -453 -57 -198 -98 -610 -76 -767 6 -43 11 -130
11 -192 0 -63 4 -125 10 -139 5 -15 21 -81 34 -149 28 -138 96 -332 153 -438
87 -160 237 -327 388 -429 89 -60 338 -163 448 -186 105 -21 383 -29 501 -15
365 46 671 231 872 526 79 116 108 174 155 311 96 281 122 452 123 804 1 304
-17 460 -80 687 -48 177 -89 274 -180 425 -102 169 -170 239 -348 358 -175
116 -294 161 -515 190 -162 23 -244 23 -416 3z m357 -496 c84 -21 161 -71 258
-167 127 -125 183 -252 230 -510 48 -272 49 -647 0 -950 -18 -114 -59 -263
-81 -300 -5 -8 -17 -31 -25 -50 -25 -54 -99 -152 -153 -203 -57 -53 -183 -120
-259 -136 -119 -25 -290 -2 -408 54 -211 101 -339 335 -391 713 -23 173 -24
680 0 817 25 145 62 275 97 344 16 33 30 68 30 77 0 22 61 103 129 171 56 57
182 126 273 149 63 16 214 11 300 -9z"/>
<path d="M11934 5873 l-72 -4 -7 -422 c-3 -232 -5 -888 -3 -1457 3 -954 5
-1040 21 -1095 36 -121 97 -188 217 -237 55 -23 57 -23 690 -26 702 -4 693 -4
829 61 104 50 118 76 168 295 23 103 40 188 37 191 -2 3 -273 -1 -602 -7 -328
-7 -623 -12 -655 -12 l-59 0 2 1143 c3 1141 1 1212 -31 1332 -27 101 -80 162
-179 209 -59 28 -74 31 -175 32 -60 0 -142 -1 -181 -3z"/>
<path d="M15166 5854 c-82 -13 -150 -25 -152 -26 -7 -8 -1055 -3180 -1051
-3184 5 -5 588 -37 592 -32 2 2 55 170 118 373 l114 370 559 0 559 0 91 -285
91 -284 57 -63 c82 -90 130 -107 306 -107 129 -1 139 1 226 33 l92 33 -24 72
c-13 39 -169 526 -348 1081 -179 556 -397 1231 -484 1500 l-159 490 -60 16
c-71 20 -239 39 -321 38 -31 0 -124 -12 -206 -25z m223 -735 c21 -74 108 -377
193 -674 85 -297 158 -550 162 -562 l7 -23 -400 0 c-314 0 -401 3 -401 13 0
18 393 1388 397 1383 2 -2 21 -64 42 -137z"/>
<path d="M17293 5873 l-113 -4 0 -967 c0 -1145 8 -1321 71 -1552 90 -332 330
-586 656 -696 139 -47 246 -64 438 -70 431 -15 734 79 955 296 178 174 269
358 316 643 17 103 32 896 33 1831 l1 519 -202 -6 c-112 -4 -256 -7 -320 -7
l-117 0 -4 -1132 c-4 -1250 -3 -1220 -67 -1348 -21 -42 -59 -91 -104 -136
-124 -123 -227 -166 -401 -165 -105 0 -239 22 -290 48 -52 27 -152 102 -184
139 -58 66 -96 160 -128 323 -13 63 -17 235 -22 1051 -7 899 -9 979 -25 1030
-27 83 -56 114 -149 159 -92 45 -136 51 -344 44z"/>
<path d="M20950 5870 c-124 -4 -305 -11 -402 -15 l-178 -7 0 -1614 0 -1614
320 0 320 0 0 539 0 539 268 5 c390 7 550 38 752 143 268 139 428 359 497 684
27 126 24 418 -4 556 -38 183 -117 334 -247 472 -65 69 -173 150 -251 190 -52
26 -219 77 -319 97 -88 18 -329 35 -451 33 -44 -1 -181 -4 -305 -8z m585 -505
c93 -25 136 -48 198 -108 106 -103 161 -263 161 -472 0 -175 -39 -315 -118
-423 -51 -69 -114 -112 -218 -146 -74 -25 -86 -26 -312 -26 l-236 0 0 595 0
595 233 0 c177 0 247 -4 292 -15z"/>
<path d="M658 5863 l-158 -4 0 -1619 0 -1620 315 0 315 0 0 711 0 712 68 -6
c37 -4 141 -12 232 -18 188 -13 180 -9 283 -119 93 -98 150 -220 297 -640 89
-252 138 -377 183 -462 61 -115 63 -118 117 -142 87 -39 143 -49 238 -44 127
8 213 41 306 118 l76 62 -56 62 c-74 80 -144 227 -228 471 -98 287 -209 581
-251 665 -96 192 -205 296 -365 350 -36 12 -69 26 -75 31 -6 6 6 25 31 52 46
47 41 39 299 487 103 179 200 345 216 370 16 25 94 162 172 305 135 245 143
260 123 268 -12 5 -129 10 -261 10 -231 2 -242 1 -298 -22 -103 -41 -123 -69
-367 -511 -123 -223 -233 -418 -246 -435 -12 -16 -25 -41 -29 -55 -4 -14 -18
-38 -31 -53 -13 -15 -40 -59 -59 -96 -42 -80 -59 -98 -112 -117 -56 -19 -227
-19 -247 2 -14 14 -16 87 -16 655 l0 639 -157 -2 c-87 -1 -229 -4 -315 -5z"/>
<path d="M6720 5863 c-92 -8 -281 -31 -286 -35 -2 -3 -7 -725 -11 -1606 l-6
-1602 321 0 322 0 0 540 0 540 228 0 c240 0 394 16 577 59 178 43 350 146 483
290 71 77 151 201 152 234 0 4 9 20 19 35 11 15 32 83 48 152 26 115 28 141
28 320 0 186 -2 201 -33 324 -84 334 -205 481 -528 644 -195 98 -309 113 -857
110 -227 -1 -432 -3 -457 -5z m872 -502 c87 -20 134 -49 218 -131 46 -45 63
-70 87 -135 34 -89 53 -191 53 -289 0 -84 -18 -210 -37 -261 -8 -22 -22 -60
-31 -85 -9 -24 -34 -71 -57 -105 -35 -51 -52 -66 -115 -97 -118 -59 -181 -69
-430 -66 l-215 3 -3 593 -2 592 227 0 c187 0 242 -3 305 -19z"/>
<path d="M9490 5864 c-14 -2 -98 -8 -187 -15 l-163 -12 0 -1602 0 -1602 107
-6 c58 -4 202 -7 320 -7 l213 0 0 540 0 540 194 0 c408 0 600 32 806 135 394
197 582 589 531 1108 -16 167 -36 250 -81 344 -108 227 -284 400 -491 481
-127 50 -274 83 -409 93 -113 7 -780 10 -840 3z m815 -498 c85 -22 138 -51
195 -107 116 -113 163 -244 163 -459 0 -293 -84 -469 -268 -559 -90 -43 -147
-51 -402 -51 l-213 0 0 595 0 595 238 0 c165 0 252 -4 287 -14z"/>
<path d="M23410 5864 c-19 -2 -99 -9 -177 -15 l-143 -12 0 -1602 0 -1602 46
-7 c26 -3 170 -6 320 -6 l274 0 0 540 0 540 213 0 c234 0 506 30 642 71 220
66 444 243 538 426 109 212 157 434 143 672 -18 309 -117 545 -303 722 -162
155 -385 246 -658 269 -100 9 -811 11 -895 4z m890 -519 c49 -19 94 -35 99
-35 19 0 146 -187 181 -265 35 -80 35 -81 34 -220 -1 -171 -20 -269 -74 -383
-52 -110 -114 -170 -211 -207 -92 -35 -170 -44 -406 -45 l-193 0 0 595 0 595
240 0 240 0 90 -35z"/>
<path d="M13352 1869 c-134 -26 -263 -126 -297 -230 -37 -112 1 -271 81 -337
50 -42 148 -94 286 -153 213 -90 235 -104 269 -171 60 -118 16 -245 -108 -307
-58 -29 -111 -35 -189 -22 -124 22 -227 95 -256 182 -19 57 -47 62 -107 19
-48 -35 -48 -35 2 -119 45 -75 114 -150 145 -157 15 -4 34 -13 44 -21 50 -44
280 -57 389 -23 114 35 207 109 250 198 17 36 23 66 23 127 1 121 -16 169 -88
240 -69 69 -130 103 -328 185 -225 94 -274 140 -272 257 1 62 3 66 45 109 66
68 89 77 199 78 118 1 153 -15 235 -109 61 -69 77 -75 125 -50 36 18 48 57 29
92 -24 44 -133 137 -200 169 -101 50 -181 62 -277 43z"/>
<path d="M17471 1855 c-35 -13 -66 -27 -70 -32 -3 -4 -5 -295 -3 -645 3 -726
-8 -652 99 -660 l62 -4 3 207 3 207 50 54 c28 30 66 74 85 98 30 36 40 42 60
37 16 -4 81 -73 185 -199 88 -106 200 -239 248 -295 l88 -103 79 0 c43 0 81 4
84 9 3 4 -125 168 -284 364 -160 196 -290 360 -290 366 0 5 112 131 249 279
137 149 252 275 255 281 3 5 3 16 0 25 -8 21 -114 22 -153 1 -28 -14 -154
-149 -491 -524 l-165 -183 -3 371 c-2 287 -5 371 -15 370 -6 0 -41 -11 -76
-24z"/>
<path d="M3270 1190 l0 -673 248 6 c206 4 260 8 324 25 196 53 334 171 428
366 37 78 70 203 70 265 0 51 -49 261 -72 304 -91 180 -215 283 -413 342 -85
26 -104 28 -337 32 l-248 5 0 -672z m499 509 c77 -17 184 -74 243 -128 65 -59
103 -130 137 -252 64 -231 -35 -477 -232 -574 -99 -49 -186 -65 -349 -65
l-138 0 0 509 0 510 38 4 c79 8 259 6 301 -4z"/>
<path d="M5511 1846 c-8 -9 -10 -192 -9 -667 l3 -654 64 -3 c45 -2 67 1 72 10
5 7 9 298 9 646 l0 633 -25 24 c-27 28 -94 35 -114 11z"/>
<path d="M6860 1840 c-20 -20 -20 -33 -20 -654 0 -564 2 -636 16 -650 11 -12
35 -16 85 -16 l69 0 2 513 3 512 382 -490 c209 -269 393 -501 408 -515 29 -27
95 -34 117 -12 10 10 14 150 16 650 1 350 0 647 -3 660 -5 20 -11 22 -66 22
-109 0 -99 49 -100 -498 -1 -262 -4 -488 -8 -502 l-7 -24 -27 34 c-14 19 -182
238 -372 485 -190 248 -357 462 -370 478 -29 34 -94 38 -125 7z"/>
<path d="M9674 1846 c-28 -12 -50 -55 -249 -487 -120 -260 -224 -492 -232
-515 -8 -24 -21 -48 -29 -55 -8 -6 -14 -22 -14 -35 0 -12 -21 -63 -46 -113
-26 -50 -44 -97 -40 -106 4 -11 21 -15 70 -15 l65 0 88 160 88 160 349 -2 349
-3 49 -125 c28 -69 54 -135 59 -148 5 -12 21 -27 36 -33 36 -14 111 -15 124
-2 20 20 -24 130 -257 644 -130 288 -250 556 -267 594 -16 39 -34 76 -39 83
-13 16 -65 15 -104 -2z m215 -600 c67 -148 121 -270 121 -272 0 -2 -130 -4
-290 -4 -177 0 -290 4 -290 10 0 7 164 389 262 610 l21 45 28 -60 c15 -33 82
-181 148 -329z"/>
<path d="M15570 1842 c-29 -14 -39 -28 -56 -77 -11 -33 -50 -122 -86 -197 -37
-76 -72 -154 -78 -175 -7 -21 -19 -46 -27 -55 -8 -9 -18 -31 -23 -50 -5 -18
-36 -94 -70 -168 -34 -74 -70 -153 -80 -175 -10 -22 -43 -94 -73 -160 -31 -66
-59 -133 -62 -149 -3 -16 -16 -36 -28 -46 -20 -17 -20 -18 -4 -44 16 -23 24
-26 75 -26 72 0 93 18 121 106 11 32 36 94 55 137 l35 77 348 0 348 0 80 -158
80 -157 71 -3 c92 -4 96 5 45 106 -21 42 -147 323 -280 623 -133 300 -251 560
-261 577 -17 27 -26 32 -57 32 -21 0 -54 -8 -73 -18z m204 -543 c75 -174 136
-319 136 -323 0 -3 -130 -6 -290 -6 -159 0 -290 3 -290 7 0 18 295 652 301
645 4 -4 68 -149 143 -323z"/>
<path d="M19580 1190 l0 -670 410 0 410 0 -4 23 c-3 12 -7 42 -11 67 -3 24
-11 50 -17 57 -8 10 -76 13 -309 13 -164 0 -300 3 -302 8 -3 4 -6 104 -8 222
l-4 215 240 5 240 5 0 60 0 60 -237 3 -238 2 0 225 0 225 313 0 314 0 -11 65
c-6 38 -17 70 -26 75 -9 6 -171 10 -387 10 l-373 0 0 -670z"/>
<path d="M21557 1854 c-9 -9 -9 -1173 0 -1266 l6 -68 62 0 c43 0 66 5 75 15 9
11 11 72 9 237 l-4 223 157 3 156 2 22 -27 c12 -16 82 -116 156 -223 74 -107
144 -203 156 -212 15 -13 38 -18 85 -18 59 0 65 2 60 19 -2 10 -75 121 -162
246 l-157 227 23 16 c55 39 169 145 188 176 80 129 79 303 -3 452 -39 71 -100
120 -205 166 l-76 33 -270 3 c-149 2 -274 0 -278 -4z m567 -170 c63 -24 112
-72 144 -142 22 -49 24 -64 19 -139 -4 -72 -9 -89 -29 -111 -14 -15 -35 -43
-47 -64 -28 -47 -51 -54 -251 -78 -91 -11 -184 -22 -207 -26 l-43 -5 0 296 0
297 183 -4 c149 -4 191 -8 231 -24z"/>
</g>
</svg>
