<?xml version="1.0" encoding="UTF-8"?>
<svg xmlns="http://www.w3.org/2000/svg" xmlns:xlink="http://www.w3.org/1999/xlink" width="36px" height="36px" viewBox="0 0 36 36" version="1.1">
<g id="surface1">
<path style=" stroke:none;fill-rule:nonzero;fill:rgb(0%,0%,0%);fill-opacity:1;" d="M 5.878906 15.417969 C 5.636719 15.839844 5.4375 16.203125 5.429688 16.230469 C 5.421875 16.25 5.621094 16.628906 5.867188 17.0625 L 6.316406 17.851562 L 8.191406 17.851562 L 8.636719 17.074219 C 8.882812 16.644531 9.082031 16.277344 9.082031 16.253906 C 9.082031 16.230469 8.882812 15.863281 8.636719 15.433594 L 8.191406 14.652344 L 6.316406 14.652344 Z M 8.476562 15.550781 L 8.886719 16.253906 L 8.820312 16.363281 C 8.785156 16.417969 8.601562 16.738281 8.40625 17.070312 L 8.058594 17.675781 L 6.453125 17.675781 L 6.046875 16.980469 C 5.824219 16.601562 5.640625 16.273438 5.640625 16.253906 C 5.640625 16.230469 5.761719 16.015625 5.902344 15.769531 C 6.046875 15.519531 6.226562 15.210938 6.308594 15.074219 L 6.449219 14.832031 L 7.261719 14.839844 L 8.070312 14.851562 Z M 8.476562 15.550781 "/>
<path style=" stroke:none;fill-rule:nonzero;fill:rgb(0%,0%,0%);fill-opacity:1;" d="M 13.570312 15.964844 C 13.570312 16.191406 13.574219 16.199219 13.660156 16.199219 L 13.753906 16.199219 L 13.753906 17.566406 L 13.660156 17.566406 C 13.574219 17.566406 13.570312 17.574219 13.570312 17.800781 L 13.570312 18.035156 L 14.542969 18.035156 L 14.542969 17.800781 C 14.542969 17.574219 14.539062 17.566406 14.453125 17.566406 L 14.363281 17.566406 L 14.363281 16.199219 L 14.453125 16.199219 C 14.539062 16.199219 14.542969 16.191406 14.542969 15.964844 L 14.542969 15.730469 L 13.570312 15.730469 Z M 13.570312 15.964844 "/>
<path style=" stroke:none;fill-rule:nonzero;fill:rgb(0%,0%,0%);fill-opacity:1;" d="M 15.046875 15.984375 L 15.046875 16.234375 L 15.625 16.234375 L 15.625 15.730469 L 15.046875 15.730469 Z M 15.046875 15.984375 "/>
<path style=" stroke:none;fill-rule:nonzero;fill:rgb(0%,0%,0%);fill-opacity:1;" d="M 15.730469 16.882812 L 15.730469 18.035156 L 16.308594 18.035156 L 16.308594 16.234375 L 16.992188 16.234375 L 16.992188 15.730469 L 15.730469 15.730469 Z M 15.730469 16.882812 "/>
<path style=" stroke:none;fill-rule:nonzero;fill:rgb(0%,0%,0%);fill-opacity:1;" d="M 17.566406 16.882812 L 17.566406 18.035156 L 18.179688 18.035156 L 18.179688 15.730469 L 17.566406 15.730469 Z M 17.566406 16.882812 "/>
<path style=" stroke:none;fill-rule:nonzero;fill:rgb(0%,0%,0%);fill-opacity:1;" d="M 18.253906 15.984375 L 18.253906 16.234375 L 19.042969 16.234375 L 19.042969 16.738281 L 18.660156 16.746094 L 18.269531 16.757812 L 18.257812 17 L 18.25 17.242188 L 18.4375 17.25 L 18.621094 17.261719 L 18.859375 17.648438 L 19.09375 18.035156 L 19.65625 18.035156 L 19.65625 17.898438 C 19.65625 17.796875 19.613281 17.703125 19.476562 17.496094 L 19.296875 17.226562 L 19.476562 17.046875 L 19.65625 16.863281 L 19.65625 16.089844 L 19.492188 15.910156 L 19.320312 15.730469 L 18.253906 15.730469 Z M 18.253906 15.984375 "/>
<path style=" stroke:none;fill-rule:nonzero;fill:rgb(0%,0%,0%);fill-opacity:1;" d="M 20.542969 15.910156 L 20.375 16.089844 L 20.375 18.035156 L 20.988281 18.035156 L 20.988281 15.730469 L 20.847656 15.730469 C 20.730469 15.730469 20.6875 15.757812 20.542969 15.910156 Z M 20.542969 15.910156 "/>
<path style=" stroke:none;fill-rule:nonzero;fill:rgb(0%,0%,0%);fill-opacity:1;" d="M 21.058594 15.984375 L 21.058594 16.234375 L 21.816406 16.234375 L 21.816406 16.882812 L 21.058594 16.882812 L 21.058594 17.386719 L 21.816406 17.386719 L 21.816406 18.035156 L 22.390625 18.035156 L 22.390625 16.070312 L 22.21875 15.902344 L 22.046875 15.730469 L 21.058594 15.730469 Z M 21.058594 15.984375 "/>
<path style=" stroke:none;fill-rule:nonzero;fill:rgb(0%,0%,0%);fill-opacity:1;" d="M 23.316406 15.90625 L 23.148438 16.078125 L 23.148438 17.699219 L 23.320312 17.867188 C 23.464844 18.007812 23.515625 18.035156 23.625 18.035156 L 23.761719 18.035156 L 23.761719 15.730469 L 23.625 15.730469 C 23.507812 15.730469 23.460938 15.757812 23.316406 15.90625 Z M 23.316406 15.90625 "/>
<path style=" stroke:none;fill-rule:nonzero;fill:rgb(0%,0%,0%);fill-opacity:1;" d="M 23.832031 15.984375 L 23.832031 16.234375 L 24.148438 16.234375 C 24.441406 16.234375 24.472656 16.242188 24.550781 16.324219 C 24.625 16.40625 24.667969 16.414062 24.863281 16.414062 L 25.09375 16.414062 L 25.09375 16.242188 C 25.09375 16.085938 25.078125 16.054688 24.917969 15.902344 L 24.746094 15.730469 L 23.832031 15.730469 Z M 23.832031 15.984375 "/>
<path style=" stroke:none;fill-rule:nonzero;fill:rgb(0%,0%,0%);fill-opacity:1;" d="M 25.847656 16.882812 L 25.847656 18.035156 L 26.425781 18.035156 L 26.425781 15.730469 L 25.847656 15.730469 Z M 25.847656 16.882812 "/>
<path style=" stroke:none;fill-rule:nonzero;fill:rgb(0%,0%,0%);fill-opacity:1;" d="M 27.296875 15.835938 C 27.261719 15.890625 27.144531 16.09375 27.035156 16.285156 C 26.839844 16.625 26.835938 16.632812 26.703125 16.632812 L 26.566406 16.632812 L 26.566406 17.136719 L 26.703125 17.136719 C 26.839844 17.136719 26.839844 17.140625 27.089844 17.578125 L 27.34375 18.019531 L 27.621094 18.027344 L 27.898438 18.039062 L 27.898438 17.890625 C 27.898438 17.777344 27.847656 17.667969 27.648438 17.335938 C 27.511719 17.113281 27.394531 16.910156 27.394531 16.886719 C 27.394531 16.863281 27.511719 16.65625 27.648438 16.429688 C 27.847656 16.101562 27.898438 15.992188 27.898438 15.875 L 27.898438 15.730469 L 27.628906 15.730469 C 27.371094 15.730469 27.355469 15.734375 27.296875 15.835938 Z M 27.296875 15.835938 "/>
<path style=" stroke:none;fill-rule:nonzero;fill:rgb(0%,0%,0%);fill-opacity:1;" d="M 28.585938 16.714844 L 28.585938 17.699219 L 28.757812 17.867188 C 28.890625 17.996094 28.953125 18.035156 29.042969 18.035156 L 29.160156 18.035156 L 29.160156 15.730469 L 28.585938 15.730469 Z M 28.585938 16.714844 "/>
<path style=" stroke:none;fill-rule:nonzero;fill:rgb(0%,0%,0%);fill-opacity:1;" d="M 29.988281 16.632812 L 29.988281 17.53125 L 29.269531 17.53125 L 29.269531 18.035156 L 30.261719 18.035156 L 30.429688 17.863281 L 30.601562 17.691406 L 30.601562 15.730469 L 29.988281 15.730469 Z M 29.988281 16.632812 "/>
<path style=" stroke:none;fill-rule:nonzero;fill:rgb(0%,0%,0%);fill-opacity:1;" d="M 8.96875 17.234375 C 8.722656 17.664062 8.519531 18.03125 8.519531 18.054688 C 8.519531 18.070312 8.726562 18.4375 8.976562 18.863281 L 9.425781 19.636719 L 11.28125 19.636719 L 11.429688 19.386719 C 11.511719 19.246094 11.722656 18.890625 11.894531 18.585938 L 12.207031 18.042969 L 11.75 17.246094 L 11.292969 16.453125 L 9.414062 16.453125 Z M 11.5625 17.308594 C 11.777344 17.679688 11.953125 18 11.960938 18.023438 C 11.964844 18.046875 11.792969 18.375 11.574219 18.753906 L 11.179688 19.441406 L 10.355469 19.433594 L 9.527344 19.421875 L 9.136719 18.757812 C 8.925781 18.390625 8.746094 18.070312 8.746094 18.046875 C 8.746094 18.023438 8.859375 17.8125 8.996094 17.578125 C 9.128906 17.34375 9.308594 17.035156 9.390625 16.890625 L 9.542969 16.632812 L 10.359375 16.632812 L 11.179688 16.636719 Z M 11.5625 17.308594 "/>
<path style=" stroke:none;fill-rule:nonzero;fill:rgb(0%,0%,0%);fill-opacity:1;" d="M 24.550781 17.441406 C 24.472656 17.523438 24.441406 17.53125 24.148438 17.53125 L 23.832031 17.53125 L 23.832031 18.035156 L 24.753906 18.035156 L 24.921875 17.863281 C 25.078125 17.707031 25.09375 17.675781 25.09375 17.519531 L 25.09375 17.351562 L 24.863281 17.351562 C 24.667969 17.351562 24.625 17.363281 24.550781 17.441406 Z M 24.550781 17.441406 "/>
<path style=" stroke:none;fill-rule:nonzero;fill:rgb(0%,0%,0%);fill-opacity:1;" d="M 5.871094 18.925781 C 5.625 19.355469 5.425781 19.722656 5.425781 19.746094 C 5.425781 19.769531 5.625 20.136719 5.871094 20.566406 L 6.316406 21.347656 L 8.191406 21.347656 L 8.636719 20.566406 C 8.882812 20.136719 9.082031 19.769531 9.082031 19.746094 C 9.082031 19.722656 8.882812 19.355469 8.636719 18.925781 L 8.191406 18.148438 L 6.316406 18.148438 Z M 8.40625 18.925781 C 8.601562 19.261719 8.785156 19.578125 8.820312 19.636719 L 8.886719 19.746094 L 8.476562 20.449219 L 8.070312 21.148438 L 6.4375 21.148438 L 6.03125 20.449219 C 5.671875 19.828125 5.625 19.738281 5.667969 19.675781 C 5.691406 19.632812 5.878906 19.3125 6.082031 18.960938 L 6.453125 18.324219 L 8.058594 18.324219 Z M 8.40625 18.925781 "/>
<path style=" stroke:none;fill-rule:nonzero;fill:rgb(0%,0%,0%);fill-opacity:1;" d="M 18.847656 18.90625 C 18.730469 18.972656 18.71875 19.007812 18.71875 19.3125 C 18.71875 19.683594 18.765625 19.765625 18.992188 19.765625 C 19.246094 19.765625 19.296875 19.6875 19.296875 19.316406 C 19.296875 19.03125 19.289062 19.007812 19.203125 18.941406 C 19.097656 18.855469 18.957031 18.84375 18.847656 18.90625 Z M 19.144531 19.015625 C 19.171875 19.039062 19.1875 19.171875 19.1875 19.339844 C 19.1875 19.605469 19.183594 19.625 19.097656 19.664062 C 18.960938 19.722656 18.839844 19.65625 18.804688 19.492188 C 18.777344 19.332031 18.804688 19.09375 18.863281 19.027344 C 18.917969 18.960938 19.082031 18.953125 19.144531 19.015625 Z M 19.144531 19.015625 "/>
<path style=" stroke:none;fill-rule:nonzero;fill:rgb(0%,0%,0%);fill-opacity:1;" d="M 25.757812 18.890625 C 25.609375 18.925781 25.597656 18.96875 25.597656 19.335938 C 25.597656 19.648438 25.601562 19.691406 25.664062 19.726562 C 25.773438 19.78125 26.011719 19.769531 26.078125 19.707031 C 26.144531 19.644531 26.15625 19.476562 26.101562 19.476562 C 26.082031 19.476562 26.0625 19.496094 26.0625 19.527344 C 26.0625 19.605469 25.960938 19.691406 25.867188 19.691406 C 25.71875 19.691406 25.667969 19.601562 25.667969 19.332031 C 25.667969 19.15625 25.683594 19.070312 25.726562 19.03125 C 25.800781 18.949219 25.945312 18.957031 26.015625 19.042969 C 26.054688 19.082031 26.09375 19.117188 26.105469 19.117188 C 26.152344 19.117188 26.140625 18.984375 26.09375 18.941406 C 26.03125 18.894531 25.847656 18.867188 25.757812 18.890625 Z M 25.757812 18.890625 "/>
<path style=" stroke:none;fill-rule:nonzero;fill:rgb(0%,0%,0%);fill-opacity:1;" d="M 13.789062 19.332031 C 13.789062 19.578125 13.800781 19.765625 13.820312 19.765625 C 13.84375 19.765625 13.859375 19.710938 13.867188 19.644531 C 13.878906 19.539062 13.890625 19.53125 14.03125 19.507812 C 14.121094 19.496094 14.207031 19.464844 14.222656 19.4375 C 14.269531 19.359375 14.261719 18.992188 14.210938 18.941406 C 14.1875 18.917969 14.082031 18.898438 13.980469 18.898438 L 13.789062 18.898438 Z M 14.125 19.03125 C 14.191406 19.09375 14.203125 19.230469 14.148438 19.335938 C 14.121094 19.382812 14.074219 19.402344 13.984375 19.402344 L 13.859375 19.402344 L 13.859375 19.214844 C 13.859375 19.105469 13.871094 19.007812 13.886719 18.996094 C 13.929688 18.949219 14.070312 18.972656 14.125 19.03125 Z M 14.125 19.03125 "/>
<path style=" stroke:none;fill-rule:nonzero;fill:rgb(0%,0%,0%);fill-opacity:1;" d="M 15.011719 19.332031 L 15.011719 19.765625 L 15.226562 19.765625 C 15.347656 19.765625 15.445312 19.75 15.445312 19.726562 C 15.445312 19.707031 15.371094 19.691406 15.28125 19.691406 L 15.121094 19.691406 L 15.121094 19.535156 C 15.121094 19.375 15.121094 19.371094 15.257812 19.359375 C 15.328125 19.355469 15.390625 19.332031 15.390625 19.3125 C 15.390625 19.292969 15.328125 19.273438 15.257812 19.265625 C 15.125 19.257812 15.121094 19.253906 15.121094 19.113281 L 15.121094 18.972656 L 15.28125 18.972656 C 15.371094 18.972656 15.445312 18.953125 15.445312 18.9375 C 15.445312 18.914062 15.347656 18.898438 15.226562 18.898438 L 15.011719 18.898438 Z M 15.011719 19.332031 "/>
<path style=" stroke:none;fill-rule:nonzero;fill:rgb(0%,0%,0%);fill-opacity:1;" d="M 16.273438 19.332031 C 16.273438 19.59375 16.285156 19.765625 16.308594 19.765625 C 16.328125 19.765625 16.34375 19.707031 16.34375 19.636719 C 16.34375 19.539062 16.359375 19.511719 16.414062 19.511719 C 16.460938 19.511719 16.507812 19.554688 16.550781 19.636719 C 16.582031 19.707031 16.632812 19.765625 16.65625 19.765625 C 16.71875 19.765625 16.714844 19.75 16.648438 19.621094 C 16.597656 19.519531 16.597656 19.507812 16.667969 19.441406 C 16.722656 19.386719 16.738281 19.320312 16.738281 19.191406 C 16.738281 18.960938 16.679688 18.898438 16.449219 18.898438 L 16.273438 18.898438 Z M 16.589844 19.003906 C 16.621094 19.023438 16.632812 19.09375 16.625 19.210938 C 16.613281 19.386719 16.613281 19.386719 16.480469 19.398438 L 16.34375 19.40625 L 16.34375 19.191406 C 16.34375 18.976562 16.347656 18.972656 16.445312 18.972656 C 16.5 18.972656 16.5625 18.988281 16.589844 19.003906 Z M 16.589844 19.003906 "/>
<path style=" stroke:none;fill-rule:nonzero;fill:rgb(0%,0%,0%);fill-opacity:1;" d="M 17.539062 19.320312 C 17.546875 19.617188 17.5625 19.746094 17.597656 19.757812 C 17.628906 19.769531 17.640625 19.714844 17.640625 19.570312 L 17.640625 19.367188 L 17.789062 19.367188 C 17.976562 19.367188 17.960938 19.28125 17.773438 19.265625 C 17.644531 19.257812 17.640625 19.253906 17.640625 19.113281 L 17.640625 18.972656 L 17.800781 18.972656 C 17.890625 18.972656 17.964844 18.953125 17.964844 18.9375 C 17.964844 18.914062 17.867188 18.898438 17.746094 18.898438 L 17.527344 18.898438 Z M 17.539062 19.320312 "/>
<path style=" stroke:none;fill-rule:nonzero;fill:rgb(0%,0%,0%);fill-opacity:1;" d="M 20.125 19.332031 C 20.125 19.59375 20.136719 19.765625 20.160156 19.765625 C 20.179688 19.765625 20.195312 19.707031 20.195312 19.636719 C 20.195312 19.539062 20.210938 19.511719 20.269531 19.511719 C 20.316406 19.511719 20.363281 19.554688 20.402344 19.636719 C 20.433594 19.707031 20.484375 19.765625 20.507812 19.765625 C 20.566406 19.765625 20.566406 19.734375 20.503906 19.621094 C 20.460938 19.542969 20.460938 19.523438 20.523438 19.445312 C 20.609375 19.335938 20.617188 19.039062 20.535156 18.957031 C 20.5 18.921875 20.414062 18.898438 20.300781 18.898438 L 20.125 18.898438 Z M 20.441406 19.003906 C 20.472656 19.023438 20.484375 19.09375 20.476562 19.210938 C 20.464844 19.386719 20.464844 19.386719 20.332031 19.398438 L 20.195312 19.40625 L 20.195312 19.191406 C 20.195312 18.976562 20.199219 18.972656 20.296875 18.972656 C 20.351562 18.972656 20.414062 18.988281 20.441406 19.003906 Z M 20.441406 19.003906 "/>
<path style=" stroke:none;fill-rule:nonzero;fill:rgb(0%,0%,0%);fill-opacity:1;" d="M 21.382812 19.328125 C 21.382812 19.691406 21.390625 19.765625 21.4375 19.765625 C 21.480469 19.765625 21.492188 19.703125 21.496094 19.429688 L 21.496094 19.097656 L 21.609375 19.414062 C 21.675781 19.589844 21.742188 19.738281 21.761719 19.738281 C 21.785156 19.742188 21.847656 19.597656 21.914062 19.421875 L 22.027344 19.097656 L 22.027344 19.429688 C 22.03125 19.703125 22.042969 19.765625 22.085938 19.765625 C 22.132812 19.765625 22.140625 19.691406 22.140625 19.328125 C 22.140625 18.898438 22.140625 18.894531 22.0625 18.90625 C 21.992188 18.914062 21.960938 18.972656 21.875 19.21875 C 21.816406 19.378906 21.765625 19.507812 21.757812 19.5 C 21.75 19.492188 21.699219 19.359375 21.648438 19.203125 C 21.5625 18.972656 21.53125 18.914062 21.46875 18.90625 C 21.382812 18.894531 21.382812 18.898438 21.382812 19.328125 Z M 21.382812 19.328125 "/>
<path style=" stroke:none;fill-rule:nonzero;fill:rgb(0%,0%,0%);fill-opacity:1;" d="M 23.058594 19.214844 C 23.003906 19.390625 22.949219 19.578125 22.929688 19.632812 C 22.886719 19.769531 22.886719 19.765625 22.949219 19.765625 C 22.980469 19.765625 23.015625 19.722656 23.027344 19.65625 C 23.046875 19.558594 23.0625 19.546875 23.191406 19.546875 C 23.3125 19.546875 23.335938 19.5625 23.367188 19.65625 C 23.40625 19.765625 23.472656 19.804688 23.472656 19.722656 C 23.472656 19.59375 23.238281 18.898438 23.199219 18.898438 C 23.167969 18.898438 23.113281 19.027344 23.058594 19.214844 Z M 23.289062 19.394531 C 23.292969 19.417969 23.253906 19.441406 23.203125 19.441406 C 23.101562 19.441406 23.089844 19.402344 23.15625 19.21875 L 23.195312 19.101562 L 23.242188 19.222656 C 23.265625 19.292969 23.289062 19.371094 23.289062 19.394531 Z M 23.289062 19.394531 "/>
<path style=" stroke:none;fill-rule:nonzero;fill:rgb(0%,0%,0%);fill-opacity:1;" d="M 24.265625 19.332031 C 24.265625 19.691406 24.273438 19.765625 24.316406 19.765625 C 24.359375 19.765625 24.371094 19.707031 24.375 19.464844 L 24.375 19.171875 L 24.527344 19.464844 C 24.609375 19.628906 24.695312 19.765625 24.722656 19.765625 C 24.757812 19.765625 24.769531 19.660156 24.769531 19.332031 C 24.769531 18.972656 24.761719 18.898438 24.714844 18.898438 C 24.671875 18.898438 24.660156 18.957031 24.65625 19.195312 L 24.65625 19.492188 L 24.503906 19.195312 C 24.421875 19.03125 24.335938 18.898438 24.3125 18.898438 C 24.273438 18.898438 24.265625 19.003906 24.265625 19.332031 Z M 24.265625 19.332031 "/>
<path style=" stroke:none;fill-rule:nonzero;fill:rgb(0%,0%,0%);fill-opacity:1;" d="M 26.964844 19.332031 L 26.964844 19.765625 L 27.179688 19.765625 C 27.4375 19.765625 27.472656 19.699219 27.226562 19.683594 L 27.054688 19.675781 L 27.042969 19.519531 L 27.03125 19.367188 L 27.175781 19.367188 C 27.285156 19.367188 27.324219 19.355469 27.324219 19.3125 C 27.324219 19.273438 27.285156 19.261719 27.175781 19.261719 L 27.03125 19.261719 L 27.042969 19.125 C 27.054688 18.988281 27.054688 18.988281 27.226562 18.980469 C 27.472656 18.964844 27.4375 18.898438 27.179688 18.898438 L 26.964844 18.898438 Z M 26.964844 19.332031 "/>
</g>
</svg>
